<svg xmlns="http://www.w3.org/2000/svg" width="1024" height="1024" viewBox="0 0 1024 1024"><path transform="translate(512 512) scale(1.243) translate(-512 -517)" fill="#F6E7C8" d="M 474.0 430.0 C 474.0 382.6 492.6 342.3 525.3 314.1 C 556.8 287.0 599.3 273.0 642.7 275.9 L 642.5 275.9 C 683.6 279.0 715.4 296.6 736.3 325.5 C 756.4 353.1 765.4 390.0 761.2 428.3 L 761.2 428.5 C 758.9 451.1 752.7 471.2 742.7 491.1 C 734.6 507.4 725.0 521.9 708.2 544.5 C 709.4 542.9 696.0 560.8 692.4 565.8 C 681.3 580.9 673.4 592.9 666.4 605.4 C 666.3 605.4 666.3 605.5 666.2 605.6 C 656.3 623.6 650.7 638.9 640.5 671.6 C 640.3 672.2 640.3 672.2 640.1 672.7 C 630.6 703.4 625.8 716.2 618.1 729.2 C 609.3 744.2 598.5 754.1 582.9 760.6 L 583.4 760.4 C 563.4 768.4 544.9 768.3 530.9 761.8 C 519.7 756.7 512.9 748.2 511.7 739.2 C 509.0 720.6 491.8 707.7 473.2 710.3 C 454.6 713.0 441.7 730.2 444.3 748.8 C 449.0 781.6 471.1 809.2 502.6 823.7 C 533.9 838.0 571.8 838.3 608.6 823.6 C 608.8 823.5 608.9 823.4 609.1 823.4 C 638.9 811.0 660.7 790.9 676.7 763.7 C 683.1 752.9 688.4 741.2 693.5 727.7 C 697.1 718.0 699.7 710.1 705.0 693.0 C 705.2 692.4 705.2 692.4 705.4 691.8 C 714.2 663.5 718.8 651.1 725.8 638.4 L 725.6 638.6 C 731.1 629.0 737.7 619.1 747.3 605.9 C 750.7 601.3 763.8 583.6 762.8 585.0 C 781.7 559.5 793.2 542.2 803.5 521.6 C 817.1 494.6 825.6 466.5 828.8 435.5 L 828.8 435.7 C 834.7 381.1 821.6 327.2 791.4 285.5 C 758.7 240.5 708.5 212.7 647.5 208.1 C 647.4 208.1 647.4 208.1 647.3 208.1 C 586.1 204.0 526.0 223.7 480.9 262.6 C 433.3 303.7 406.0 362.7 406.0 430.0 C 406.0 448.8 421.2 464.0 440.0 464.0 C 458.8 464.0 474.0 448.8 474.0 430.0 Z M 576.0 479.2 C 575.3 455.3 583.1 438.6 595.8 430.0 C 607.3 422.3 622.6 421.6 637.5 429.0 L 637.1 428.8 C 650.7 435.9 657.4 448.4 656.3 462.4 C 655.2 476.9 646.1 489.9 631.1 496.2 C 616.8 502.2 610.2 518.7 616.2 532.9 C 622.2 547.2 638.7 553.8 652.9 547.8 C 726.6 516.6 734.1 416.2 662.9 379.2 C 662.8 379.1 662.7 379.0 662.5 379.0 C 630.0 362.7 593.2 364.3 564.7 383.5 C 535.2 403.3 518.8 438.5 520.0 480.8 C 520.5 496.3 533.3 508.4 548.8 508.0 C 564.3 507.5 576.4 494.7 576.0 479.2 Z"/></svg>
